<svg width="67" height="22" viewBox="0 0 67 22" fill="none" xmlns="http://www.w3.org/2000/svg">
<path d="M1.74535 16H10.3854V13.39H4.62535V10.96H10.0254V8.44H4.62535V6.01H10.3854V3.4H1.74535V16ZM12.5383 16H15.4183V8.44H15.7783L19.7383 16H23.2483V3.4H20.3683V10.96H20.0083L16.0483 3.4H12.5383V16Z" fill="#323232"/>
<mask id="path-2-outside-1_3_547" maskUnits="userSpaceOnUse" x="38" y="2" width="29" height="16" fill="black">
<rect fill="white" x="38" y="2" width="29" height="16"/>
<path d="M40.3065 16H43.4565L44.2665 13.48H49.1265L49.9365 16H53.0865L48.7665 3.4H44.6265L40.3065 16ZM45.0765 10.96L46.5165 6.46H46.8765L48.3165 10.96H45.0765ZM60.1284 16.18C63.3684 16.18 65.4384 14.11 65.4384 10.78V3.4H62.5584V10.78C62.5584 12.31 61.4784 13.39 60.1284 13.39C58.7784 13.39 57.6984 12.31 57.6984 10.78V3.4H54.8184V10.78C54.8184 14.11 56.8884 16.18 60.1284 16.18Z"/>
</mask>
<path d="M40.3065 16L39.3605 15.6757L38.9065 17H40.3065V16ZM43.4565 16V17H44.1854L44.4085 16.306L43.4565 16ZM44.2665 13.48V12.48H43.5375L43.3145 13.174L44.2665 13.48ZM49.1265 13.48L50.0785 13.174L49.8554 12.48H49.1265V13.48ZM49.9365 16L48.9845 16.306L49.2075 17H49.9365V16ZM53.0865 16V17H54.4865L54.0324 15.6757L53.0865 16ZM48.7665 3.4L49.7124 3.07567L49.4808 2.4H48.7665V3.4ZM44.6265 3.4V2.4H43.9122L43.6805 3.07567L44.6265 3.4ZM45.0765 10.96L44.1241 10.6552L43.7065 11.96H45.0765V10.96ZM46.5165 6.46V5.46H45.7865L45.5641 6.15522L46.5165 6.46ZM46.8765 6.46L47.8289 6.15522L47.6064 5.46H46.8765V6.46ZM48.3165 10.96V11.96H49.6864L49.2689 10.6552L48.3165 10.96ZM40.3065 17H43.4565V15H40.3065V17ZM44.4085 16.306L45.2185 13.786L43.3145 13.174L42.5045 15.694L44.4085 16.306ZM44.2665 14.48H49.1265V12.48H44.2665V14.48ZM48.1745 13.786L48.9845 16.306L50.8885 15.694L50.0785 13.174L48.1745 13.786ZM49.9365 17H53.0865V15H49.9365V17ZM54.0324 15.6757L49.7124 3.07567L47.8205 3.72432L52.1405 16.3243L54.0324 15.6757ZM48.7665 2.4H44.6265V4.4H48.7665V2.4ZM43.6805 3.07567L39.3605 15.6757L41.2524 16.3243L45.5724 3.72432L43.6805 3.07567ZM46.0289 11.2648L47.4689 6.76478L45.5641 6.15522L44.1241 10.6552L46.0289 11.2648ZM46.5165 7.46H46.8765V5.46H46.5165V7.46ZM45.9241 6.76478L47.3641 11.2648L49.2689 10.6552L47.8289 6.15522L45.9241 6.76478ZM48.3165 9.96H45.0765V11.96H48.3165V9.96ZM65.4384 3.4H66.4384V2.4H65.4384V3.4ZM62.5584 3.4V2.4H61.5584V3.4H62.5584ZM57.6984 3.4H58.6984V2.4H57.6984V3.4ZM54.8184 3.4V2.4H53.8184V3.4H54.8184ZM60.1284 17.18C61.9652 17.18 63.5667 16.5887 64.7098 15.4316C65.8519 14.2755 66.4384 12.6543 66.4384 10.78H64.4384C64.4384 12.2357 63.99 13.3145 63.2871 14.0259C62.5852 14.7363 61.5317 15.18 60.1284 15.18V17.18ZM66.4384 10.78V3.4H64.4384V10.78H66.4384ZM65.4384 2.4H62.5584V4.4H65.4384V2.4ZM61.5584 3.4V10.78H63.5584V3.4H61.5584ZM61.5584 10.78C61.5584 11.8054 60.8796 12.39 60.1284 12.39V14.39C62.0773 14.39 63.5584 12.8146 63.5584 10.78H61.5584ZM60.1284 12.39C59.3773 12.39 58.6984 11.8054 58.6984 10.78H56.6984C56.6984 12.8146 58.1796 14.39 60.1284 14.39V12.39ZM58.6984 10.78V3.4H56.6984V10.78H58.6984ZM57.6984 2.4H54.8184V4.4H57.6984V2.4ZM53.8184 3.4V10.78H55.8184V3.4H53.8184ZM53.8184 10.78C53.8184 12.6543 54.405 14.2755 55.5471 15.4316C56.6902 16.5887 58.2917 17.18 60.1284 17.18V15.18C58.7252 15.18 57.6717 14.7363 56.9698 14.0259C56.2669 13.3145 55.8184 12.2357 55.8184 10.78H53.8184Z" fill="#C4C4C4" mask="url(#path-2-outside-1_3_547)"/>
</svg>
