<svg width="123" height="48" viewBox="0 0 123 48" fill="none" xmlns="http://www.w3.org/2000/svg">
<path d="M3.92203 11.12C6.14203 11.12 7.28203 9.98 7.28203 8.54C7.28203 7.1 6.56203 6.38 4.88203 6.08L3.56203 5.84C2.78203 5.696 2.54203 5.48 2.54203 5.06C2.54203 4.58 2.96203 4.16 3.80203 4.16C4.73803 4.16 5.30203 4.712 5.30203 5.36H7.22203C7.22203 3.68 6.02203 2.48 3.80203 2.48C1.76203 2.48 0.622031 3.62 0.622031 5.06C0.622031 6.38 1.34203 7.124 2.84203 7.4L4.16203 7.64C5.06203 7.808 5.36203 8.12 5.36203 8.54C5.36203 9.02 4.94203 9.44 3.92203 9.44C2.90203 9.44 2.36203 8.9 2.36203 8.24H0.442031C0.442031 9.86 1.70203 11.12 3.92203 11.12ZM12.3178 11.12C15.6178 11.12 16.1578 7.82 16.1578 7.82H14.2378C14.2378 7.82 13.9378 9.26 12.3178 9.26C11.1178 9.26 10.1578 8.3 10.1578 6.8C10.1578 5.3 11.1178 4.34 12.3178 4.34C13.8778 4.34 14.2378 5.72 14.2378 5.72H16.1578C16.1578 5.72 15.5578 2.48 12.3178 2.48C10.0378 2.48 8.23781 4.28 8.23781 6.8C8.23781 9.32 10.0378 11.12 12.3178 11.12ZM17.3634 11H19.2834V8.3H19.5234L21.9234 11H24.3234L21.7434 8.18C21.7434 8.18 24.0834 8.06 24.0834 5.48C24.0834 3.74 22.9434 2.6 21.3234 2.6H17.3634V11ZM19.2834 6.56V4.4H21.2034C21.7434 4.4 22.1634 4.82 22.1634 5.48C22.1634 6.14 21.7434 6.56 21.2034 6.56H19.2834ZM29.2397 11.12C31.5197 11.12 33.3197 9.32 33.3197 6.8C33.3197 4.28 31.5197 2.48 29.2397 2.48C26.9597 2.48 25.1597 4.28 25.1597 6.8C25.1597 9.32 26.9597 11.12 29.2397 11.12ZM29.2397 9.26C28.0397 9.26 27.0797 8.3 27.0797 6.8C27.0797 5.3 28.0397 4.34 29.2397 4.34C30.4397 4.34 31.3997 5.3 31.3997 6.8C31.3997 8.3 30.4397 9.26 29.2397 9.26ZM34.6369 11H40.3369V9.14H36.5569V2.6H34.6369V11ZM41.3517 11H47.0517V9.14H43.2717V2.6H41.3517V11ZM52.6777 11H54.5977V4.46H56.9377V2.6H50.3377V4.46H52.6777V11ZM61.5014 11.12C63.7814 11.12 65.5814 9.32 65.5814 6.8C65.5814 4.28 63.7814 2.48 61.5014 2.48C59.2214 2.48 57.4214 4.28 57.4214 6.8C57.4214 9.32 59.2214 11.12 61.5014 11.12ZM61.5014 9.26C60.3014 9.26 59.3414 8.3 59.3414 6.8C59.3414 5.3 60.3014 4.34 61.5014 4.34C62.7014 4.34 63.6614 5.3 63.6614 6.8C63.6614 8.3 62.7014 9.26 61.5014 9.26ZM70.133 11H75.893V9.26H72.053V7.64H75.653V5.96H72.053V4.34H75.893V2.6H70.133V11ZM76.3083 11H78.5883L80.2683 8.3H80.5083L82.1883 11H84.4683L81.6483 6.68L84.2883 2.6H82.0083L80.5083 5.12H80.2683L78.7683 2.6H76.4883L79.1283 6.68L76.3083 11ZM85.133 11H87.053V8.48H89.033C90.653 8.48 91.793 7.34 91.793 5.54C91.793 3.74 90.653 2.6 89.033 2.6H85.133V11ZM87.053 6.62V4.46H88.913C89.453 4.46 89.873 4.88 89.873 5.54C89.873 6.2 89.453 6.62 88.913 6.62H87.053ZM93.0548 11H98.7548V9.14H94.9748V2.6H93.0548V11ZM103.009 11.12C105.289 11.12 107.089 9.32 107.089 6.8C107.089 4.28 105.289 2.48 103.009 2.48C100.729 2.48 98.9292 4.28 98.9292 6.8C98.9292 9.32 100.729 11.12 103.009 11.12ZM103.009 9.26C101.809 9.26 100.849 8.3 100.849 6.8C100.849 5.3 101.809 4.34 103.009 4.34C104.209 4.34 105.169 5.3 105.169 6.8C105.169 8.3 104.209 9.26 103.009 9.26ZM108.406 11H110.326V8.3H110.566L112.966 11H115.366L112.786 8.18C112.786 8.18 115.126 8.06 115.126 5.48C115.126 3.74 113.986 2.6 112.366 2.6H108.406V11ZM110.326 6.56V4.4H112.246C112.786 4.4 113.206 4.82 113.206 5.48C113.206 6.14 112.786 6.56 112.246 6.56H110.326ZM116.563 11H122.323V9.26H118.483V7.64H122.083V5.96H118.483V4.34H122.323V2.6H116.563V11Z" fill="#323232"/>
<rect x="60" y="21" width="1" height="27" fill="#323232"/>
</svg>
