<svg width="20" height="20" viewBox="0 0 20 20" fill="none" xmlns="http://www.w3.org/2000/svg">
<path fill-rule="evenodd" clip-rule="evenodd" d="M9.99998 0C9.25365 0 8.64863 0.605019 8.64863 1.35135V18.1081C8.64863 18.8544 9.25365 19.4595 9.99998 19.4595C10.7463 19.4595 11.3513 18.8544 11.3513 18.1081V1.35135C11.3513 0.605021 10.7463 0 9.99998 0ZM4.32434 5.40541C4.32434 4.65908 4.92936 4.05406 5.67569 4.05406C6.42202 4.05406 7.02704 4.65908 7.02704 5.40541V18.1081C7.02704 18.8544 6.42202 19.4595 5.67569 19.4595C4.92936 19.4595 4.32434 18.8544 4.32434 18.1081V5.40541ZM0 10.2703C0 9.52394 0.605021 8.91891 1.35135 8.91891C2.09768 8.91891 2.7027 9.52394 2.7027 10.2703V18.1081C2.7027 18.8544 2.09768 19.4595 1.35135 19.4595C0.605021 19.4595 0 18.8544 0 18.1081V10.2703ZM17.2973 7.83784C17.2973 7.09151 17.9023 6.48649 18.6487 6.48649C19.395 6.48649 20 7.09151 20 7.83784V18.1081C20 18.8544 19.395 19.4595 18.6487 19.4595C17.9023 19.4595 17.2973 18.8544 17.2973 18.1081V7.83784ZM14.3243 9.72974C13.578 9.72974 12.973 10.3348 12.973 11.0811V18.1081C12.973 18.8545 13.578 19.4595 14.3243 19.4595C15.0707 19.4595 15.6757 18.8545 15.6757 18.1081V11.0811C15.6757 10.3348 15.0707 9.72974 14.3243 9.72974Z" fill="#323232"/>
</svg>
